<svg id="_x33_0" enable-background="new 0 0 64 64" height="512" viewBox="0 0 64 64" width="512" xmlns="http://www.w3.org/2000/svg"><g><g><g><path d="m26 50c3.58 0 6.6-2.35 7.63-5.59.74.38 1.52.65 2.33.78v.01l4.04 12.8-7-1-5 5-2-6.5-1.75-5.69v-.01c.56.13 1.15.2 1.75.2z" fill="#fc6e51"/></g><g><path d="m19 57-7 1 4.04-12.8v-.01c.81-.13 1.59-.4 2.33-.78.86 2.7 3.09 4.78 5.88 5.39v.01l1.75 5.69-2 6.5z" fill="#fc6e51"/></g><g><path d="m40.4 33c-1.53-2.45-2.4-5.33-2.4-8.37v-6.63h1.86.48c1.57 0 3.11-.27 4.56-.78.93-2.79.29-5.98-1.93-8.19-2.53-2.53-6.33-3.01-9.34-1.44-1.03-3.24-4.05-5.59-7.63-5.59s-6.6 2.35-7.63 5.59c-3.01-1.57-6.81-1.09-9.34 1.44s-3.01 6.33-1.44 9.34c-3.24 1.03-5.59 4.05-5.59 7.63s2.35 6.6 5.59 7.63c-1.57 3.01-1.09 6.81 1.44 9.34 1.91 1.91 4.54 2.65 7.01 2.22.81-.13 1.59-.4 2.33-.78.86 2.7 3.09 4.78 5.88 5.39.56.13 1.15.2 1.75.2 3.58 0 6.6-2.35 7.63-5.59.74.38 1.52.65 2.33.78 2.47.43 5.1-.31 7.01-2.22 1.4-1.4 2.17-3.18 2.32-5-1.99-1.28-3.66-2.98-4.89-4.97z" fill="#ff826e"/></g><g><path d="m23.83 28.51-.83 2.49-2.71.39c-.02 0-.03 0-.05.01-2.44.37-4.24 2.47-4.24 4.94v2.15c-3.66-2.93-6-7.43-6-12.49 0-8.84 7.16-16 16-16 5.92 0 11.09 3.22 13.86 8h-1.86v6.63c0 3.04.87 5.92 2.4 8.37h-.01c-1.04 2.14-2.55 4.02-4.39 5.48v-2.14c0-2.47-1.8-4.57-4.24-4.94-.02-.01-.03-.01-.05-.01l-2.71-.39-.83-2.49c1.39-.68 2.42-1.96 2.73-3.51l1-1.43c.72-1.02 1.1-2.24 1.1-3.49 0-1.68-.68-3.2-1.78-4.3s-2.62-1.78-4.3-1.78h-1.84c-3.36 0-6.08 2.72-6.08 6.08 0 1.25.38 2.47 1.1 3.49l1 1.43c.2.98.68 1.86 1.36 2.54z" fill="#ffeaa7"/></g><g><path d="m31.9 23.57-1 1.43c.07-.32.1-.66.1-1v-1.31c0-.97-.71-1.81-1.67-1.97l-1.95-.32c-.83-.14-1.57-.53-2.14-1.1l-.01.01-2.34.94c-1.14.45-1.89 1.55-1.89 2.78v.97c0 .34.03.68.1 1l-1-1.43c-.72-1.02-1.1-2.24-1.1-3.49 0-3.36 2.72-6.08 6.08-6.08h1.84c1.68 0 3.2.68 4.3 1.78s1.78 2.62 1.78 4.3c0 1.25-.38 2.47-1.1 3.49z" fill="#b27946"/></g><g><path d="m36 36.34v2.14c-2.74 2.21-6.21 3.52-10 3.52-3.78 0-7.26-1.31-10-3.51v-2.15c0-2.47 1.8-4.57 4.24-4.94l2.76 4.6 3-3 3 3 2.76-4.6c2.44.37 4.24 2.47 4.24 4.94z" fill="#b4dd7f"/></g><g><path d="m23 31 3 2-3 3-2.76-4.6c.02-.01.03-.01.05-.01z" fill="#a0d468"/></g><g><path d="m31.76 31.4-2.76 4.6-3-3 3-2 2.71.39c.02 0 .03 0 .05.01z" fill="#a0d468"/></g><g><path d="m26 29c.78 0 1.52-.18 2.17-.49l.83 2.49-3 2-3-2 .83-2.49z" fill="#f0d0b4"/></g><g><path d="m30.9 25c-.31 1.55-1.34 2.83-2.73 3.51-.65.31-1.39.49-2.17.49l-2.17-.49-1.37-.97c-.68-.68-1.16-1.56-1.36-2.54-.07-.32-.1-.66-.1-1v-.97c0-1.23.75-2.33 1.89-2.78l2.34-.94.01-.01c.57.57 1.31.96 2.14 1.1l1.95.32c.96.16 1.67 1 1.67 1.97v1.31c0 .34-.03.68-.1 1z" fill="#f0d0b4"/></g><g><path d="m62 18v6.63c0 3.63-1.24 7.04-3.36 9.75-2.12 2.72-5.12 4.74-8.64 5.62-1.71-.43-3.29-1.12-4.71-2.03-1.99-1.28-3.66-2.98-4.89-4.97-1.53-2.45-2.4-5.33-2.4-8.37v-6.63h1.86.48c1.57 0 3.11-.27 4.56-.78 1.9-.68 3.65-1.77 5.1-3.22 2.56 2.56 6.03 4 9.66 4z" fill="#ccd1d9"/></g></g><g><path d="m59.657 17c-3.381 0-6.559-1.316-8.95-3.707l-.707-.707-.707.707c-.909.909-1.933 1.66-3.037 2.245.258-2.642-.643-5.281-2.578-7.216-2.523-2.523-6.223-3.297-9.496-2.075-1.45-3.179-4.613-5.247-8.182-5.247s-6.732 2.068-8.182 5.247c-3.272-1.223-6.971-.449-9.496 2.075-2.523 2.523-3.297 6.223-2.075 9.496-3.179 1.45-5.247 4.613-5.247 8.182s2.068 6.732 5.247 8.182c-1.222 3.273-.448 6.973 2.075 9.496 1.728 1.728 4.008 2.614 6.324 2.622l-4.078 12.915 8.079-1.154 5.821 5.821 1.532-4.982 1.533 4.982 5.821-5.821 8.079 1.154-4.079-12.916c2.316-.008 4.596-.893 6.324-2.621 1.147-1.147 1.954-2.579 2.352-4.133 1.164.608 2.408 1.095 3.728 1.424l.242.061.243-.061c7.511-1.876 12.757-8.595 12.757-16.338v-7.631zm-36.124 43.118-3.389-3.388 1.805-5.414-1.897-.633-1.805 5.414-4.815.688 3.392-10.74c.334-.083.667-.17.994-.292 1.093 2.396 3.16 4.158 5.639 4.882l1.497 4.865zm15.035-3.333-4.815-.688-1.805-5.414-1.897.633 1.805 5.414-3.389 3.388-2.814-9.143c.117.004.23.025.347.025 3.569 0 6.732-2.068 8.182-5.247.327.122.66.209.994.292zm3.696-14.521c-2.169 2.168-5.454 2.678-8.175 1.263l-1.056-.548-.359 1.134c-.924 2.923-3.607 4.887-6.674 4.887s-5.75-1.964-6.674-4.888l-.359-1.134-1.056.548c-2.721 1.416-6.006.905-8.175-1.263-2.169-2.169-2.676-5.455-1.263-8.176l.549-1.056-1.135-.359c-2.923-.922-4.887-3.604-4.887-6.672 0-3.067 1.964-5.75 4.887-6.674l1.135-.359-.549-1.056c-1.413-2.721-.905-6.006 1.263-8.175 2.169-2.168 5.456-2.674 8.175-1.263l1.056.549.359-1.135c.924-2.923 3.607-4.887 6.674-4.887s5.75 1.964 6.674 4.887l.359 1.135 1.056-.549c2.721-1.413 6.006-.906 8.175 1.263 1.772 1.773 2.434 4.304 1.809 6.706-1.171.359-2.402.548-3.661.554-3.097-4.943-8.56-7.996-14.412-7.996-9.374 0-17 7.626-17 17s7.626 17 17 17c5.998 0 11.405-3.072 14.484-8.109 1.042 1.357 2.295 2.547 3.713 3.537-.234 1.444-.891 2.793-1.933 3.836zm-3.018-9.238c-.624 1.177-1.382 2.249-2.257 3.195-.058-2.916-2.243-5.41-5.141-5.824l-2.095-.299-.38-1.14c1.205-.822 2.09-2.074 2.448-3.53l.899-1.283c.837-1.197 1.28-2.601 1.28-4.062 0-3.906-3.177-7.083-7.083-7.083h-1.835c-3.905 0-7.082 3.177-7.082 7.083 0 1.461.443 2.865 1.281 4.062l.898 1.283c.358 1.457 1.243 2.708 2.448 3.53l-.38 1.14-2.095.299c-2.884.412-5.059 2.885-5.137 5.783-2.483-2.678-4.015-6.249-4.015-10.18 0-8.271 6.729-15 15-15 4.733 0 9.18 2.263 11.994 6h-.994v7.631c0 3.034.815 5.905 2.246 8.395zm-15.956-14.994c.097.291.219.568.363.83l-1.138.456c-1.08.432-1.881 1.292-2.263 2.337-.164-.504-.252-1.032-.252-1.572 0-2.803 2.28-5.083 5.083-5.083h1.835c2.802 0 5.082 2.28 5.082 5.083 0 .509-.078 1.008-.224 1.485-.381-.943-1.223-1.656-2.283-1.832l-1.953-.326c-1.099-.183-2-.954-2.353-2.01l-.238-.715-1.897.632zm-1.29 4.999c0-.823.494-1.552 1.257-1.857l1.785-.714c.627.467 1.366.789 2.168.922l1.953.326c.485.081.837.496.837.986v1.304c0 2.206-1.794 4.001-4 4.002-2.206-.001-4-1.796-4-4.002zm7.237 9.013.894.128-1.329 2.216-1.232-1.232zm-3.237-.246-1.81-1.207.267-.801c.493.133 1.008.21 1.541.21h.004c.533 0 1.048-.077 1.541-.209l.267.801zm-1.57 1.358-1.232 1.232-1.329-2.216.894-.128zm-1.629 4.457 3.199-3.199 3.199 3.199 3.044-5.075c1.611.531 2.757 2.057 2.757 3.799v1.678c-2.539 1.906-5.665 2.985-9 2.985-3.379 0-6.49-1.136-9-3.028v-1.635c0-1.742 1.146-3.268 2.757-3.799zm38.199-12.982c0 6.74-4.511 12.6-11 14.336-6.489-1.736-11-7.596-11-14.336v-5.631h1.343c3.59 0 6.983-1.282 9.657-3.63 2.673 2.348 6.066 3.63 9.657 3.63h1.343z"/><path d="m48 30.586-3.293-3.293-1.414 1.414 4.707 4.707 10.707-10.707-1.414-1.414z"/></g></g></svg>